<svg width="220" height="247" viewBox="0 0 220 247" fill="none" xmlns="http://www.w3.org/2000/svg">
<path d="M110 74.7604C140.184 74.7604 167.486 80.2628 187.223 89.1381C207.008 98.0345 219 110.222 219 123.499C219 136.776 207.008 148.964 187.223 157.86C167.486 166.735 140.184 172.238 110 172.238C79.8163 172.238 52.5143 166.735 32.7769 157.86C12.9924 148.964 1 136.776 1 123.499C1 110.222 12.9924 98.0345 32.7769 89.1381C52.5143 80.2628 79.8163 74.7604 110 74.7604Z" stroke="black"/>
<path d="M68.1441 100.979C82.097 73.3431 99.4456 50.8886 116.196 36.9192C124.572 29.9338 132.779 25.0861 140.32 22.7611C147.858 20.437 154.695 20.6426 160.386 23.7045C166.076 26.7665 170.155 32.4349 172.627 40.145C175.1 47.858 175.951 57.5798 175.201 68.6686C173.702 90.8442 165.808 118.386 151.855 146.021C137.902 173.657 120.554 196.111 103.803 210.081C95.4275 217.066 87.2204 221.914 79.6796 224.239C72.1416 226.563 65.3042 226.357 59.6136 223.295C53.923 220.233 49.8437 214.565 47.3719 206.855C44.8992 199.142 44.0481 189.42 44.7978 178.331C46.297 156.156 54.1911 128.614 68.1441 100.979Z" stroke="black"/>
<path d="M171.201 32.5C178.201 32.5 183.903 38.3626 183.903 45.6283C183.903 52.894 178.201 58.7567 171.201 58.7567C164.202 58.7567 158.5 52.894 158.5 45.6283C158.5 38.3626 164.202 32.5 171.201 32.5Z" fill="#E9742E" stroke="black"/>
<path d="M16.5829 85.3417C23.5828 85.3417 29.2844 91.2043 29.2844 98.47C29.2844 105.736 23.5828 111.598 16.5829 111.598C9.58298 111.598 3.88147 105.736 3.88147 98.47C3.88147 91.2043 9.58298 85.3417 16.5829 85.3417Z" fill="#FFEA30" stroke="black"/>
<path d="M108.168 98.9704C122.003 98.9704 133.246 110.553 133.246 124.875C133.246 139.197 122.003 150.78 108.168 150.78C94.3329 150.78 83.0904 139.197 83.0904 124.875C83.0904 110.553 94.3329 98.9704 108.168 98.9704Z" fill="#DA402D" stroke="black"/>
<ellipse cx="94.9666" cy="123.173" rx="7.66594" ry="7.42581" transform="rotate(-90 94.9666 123.173)" fill="white"/>
</svg>
