<svg width="560" height="559" viewBox="0 0 560 559" fill="none" xmlns="http://www.w3.org/2000/svg">
<path d="M498.399 270.155L543.066 273.608L541.741 290.741C541.554 293.166 540.778 295.31 539.415 297.173C538.051 299.036 536.304 300.463 534.173 301.453C532.064 302.446 529.776 302.847 527.308 302.656C525.288 302.5 523.455 301.984 521.811 301.108C520.187 300.255 518.809 299.121 517.677 297.707C516.544 296.314 515.724 294.742 515.217 292.991L495.918 302.251L496.611 293.286L515.181 284.323L515.568 279.314L497.797 277.94L498.399 270.155ZM523.353 279.915L522.7 288.37C522.614 289.476 522.812 290.508 523.295 291.465C523.777 292.423 524.465 293.214 525.358 293.839C526.251 294.465 527.272 294.822 528.42 294.911C529.59 295.001 530.665 294.806 531.643 294.325C532.622 293.845 533.423 293.168 534.047 292.296C534.67 291.425 535.025 290.436 535.111 289.33L535.764 280.875L523.353 279.915Z" fill="#414141"/>
<path d="M495.08 306.07L538.656 316.469L532.135 343.797L524.54 341.985L529.249 322.251L520.409 320.142L516.673 335.798L509.079 333.986L512.815 318.329L500.862 315.477L496.153 335.211L488.558 333.399L495.08 306.07Z" fill="#414141"/>
<path d="M462.742 396.975L498.582 423.855L488.272 437.602C486.813 439.548 485.008 440.941 482.857 441.781C480.707 442.622 478.467 442.888 476.137 442.581C473.825 442.287 471.679 441.397 469.699 439.913C468.078 438.697 466.808 437.278 465.891 435.657C464.978 434.065 464.423 432.369 464.227 430.569C464.018 428.785 464.169 427.019 464.681 425.269L443.427 422.729L448.822 415.535L469.302 417.935L472.316 413.916L458.057 403.221L462.742 396.975ZM478.563 418.6L473.475 425.385C472.809 426.272 472.423 427.249 472.317 428.316C472.21 429.382 472.366 430.419 472.784 431.426C473.202 432.433 473.872 433.282 474.793 433.973C475.732 434.677 476.743 435.089 477.827 435.208C478.911 435.328 479.95 435.187 480.944 434.786C481.938 434.385 482.768 433.741 483.433 432.853L488.521 426.069L478.563 418.6Z" fill="#414141"/>
<path d="M440.833 425.262L472.164 457.284L452.082 476.933L446.621 471.352L461.123 457.164L454.767 450.668L443.262 461.925L437.801 456.344L449.306 445.087L440.713 436.304L426.211 450.492L420.751 444.911L440.833 425.262Z" fill="#414141"/>
<path d="M402.447 457.299C405.391 455.254 408.474 454.178 411.698 454.07C414.903 453.973 417.959 454.708 420.865 456.275C423.783 457.859 426.27 460.131 428.326 463.093L443.22 484.541L436.807 488.994L421.913 467.546C420.696 465.794 419.253 464.407 417.582 463.385C415.906 462.393 414.151 461.885 412.316 461.861C410.475 461.866 408.67 462.483 406.901 463.712C405.113 464.953 403.904 466.429 403.274 468.139C402.656 469.867 402.536 471.677 402.915 473.57C403.289 475.492 404.084 477.329 405.301 479.081L420.195 500.529L413.781 504.983L398.888 483.535C397.343 481.309 396.245 478.981 395.595 476.549C394.958 474.135 394.776 471.742 395.051 469.369C395.325 466.997 396.079 464.772 397.312 462.695C398.528 460.631 400.239 458.832 402.447 457.299Z" fill="#414141"/>
<path d="M371.478 476.645L387.531 518.47L371.488 524.628C369.217 525.499 366.948 525.719 364.68 525.287C362.412 524.855 360.373 523.889 358.564 522.39C356.762 520.911 355.418 519.016 354.531 516.705C353.805 514.813 353.484 512.937 353.57 511.076C353.643 509.243 354.076 507.511 354.867 505.882C355.639 504.261 356.706 502.846 358.07 501.637L341.423 488.18L349.818 484.958L365.885 497.883L370.575 496.083L364.188 479.443L371.478 476.645ZM373.373 503.373L365.456 506.411C364.42 506.809 363.573 507.431 362.916 508.277C362.258 509.124 361.838 510.085 361.657 511.16C361.476 512.235 361.591 513.31 362.004 514.386C362.424 515.481 363.062 516.368 363.916 517.045C364.77 517.723 365.725 518.156 366.78 518.345C367.835 518.534 368.88 518.43 369.916 518.033L377.833 514.994L373.373 503.373Z" fill="#414141"/>
<path d="M337.838 488.968L347.071 532.806L319.578 538.596L317.969 530.956L337.821 526.775L335.948 517.882L320.198 521.199L318.589 513.559L334.339 510.242L331.807 498.217L311.954 502.398L310.345 494.758L337.838 488.968Z" fill="#414141"/>
<path d="M288.368 495.447C291.949 495.295 295.13 496.035 297.911 497.668C300.671 499.302 302.859 501.557 304.476 504.435C306.094 507.335 306.979 510.585 307.132 514.187L308.24 540.276L300.439 540.607L299.331 514.519C299.241 512.387 298.763 510.443 297.898 508.686C297.013 506.952 295.802 505.583 294.265 504.581C292.707 503.601 290.852 503.156 288.699 503.248C286.525 503.34 284.714 503.94 283.267 505.048C281.82 506.177 280.751 507.642 280.058 509.444C279.346 511.268 279.035 513.246 279.125 515.377L280.234 541.466L272.433 541.797L271.324 515.708C271.209 513.002 271.528 510.447 272.28 508.045C273.033 505.664 274.16 503.545 275.661 501.688C277.163 499.83 278.99 498.354 281.142 497.259C283.274 496.165 285.682 495.561 288.368 495.447Z" fill="#414141"/>
<path d="M251.006 495.186L242.109 539.093L225.267 535.68C222.883 535.197 220.851 534.165 219.169 532.583C217.487 531.002 216.284 529.093 215.562 526.857C214.835 524.642 214.718 522.322 215.209 519.896C215.612 517.91 216.349 516.155 217.419 514.63C218.465 513.123 219.759 511.894 221.301 510.944C222.822 509.99 224.482 509.368 226.282 509.08L219.455 488.792L228.268 490.578L234.89 510.106L239.814 511.104L243.354 493.635L251.006 495.186ZM238.263 518.756L229.952 517.072C228.865 516.852 227.817 516.922 226.807 517.284C225.798 517.645 224.928 518.231 224.198 519.041C223.468 519.85 222.989 520.82 222.76 521.949C222.527 523.099 222.589 524.189 222.946 525.219C223.304 526.249 223.877 527.127 224.666 527.853C225.454 528.579 226.393 529.052 227.48 529.272L235.791 530.956L238.263 518.756Z" fill="#414141"/>
<path d="M215.999 487.51L200.418 529.513L174.076 519.742L176.791 512.421L195.813 519.477L198.973 510.956L183.882 505.358L186.598 498.038L201.689 503.636L205.963 492.115L186.941 485.059L189.657 477.738L215.999 487.51Z" fill="#414141"/>
<path d="M170.84 466.542C173.946 468.33 176.236 470.659 177.711 473.527C179.167 476.384 179.808 479.461 179.632 482.758C179.447 486.073 178.454 489.292 176.655 492.416L163.623 515.044L156.857 511.147L169.889 488.52C170.953 486.671 171.591 484.773 171.801 482.826C171.982 480.887 171.692 479.083 170.93 477.414C170.14 475.752 168.811 474.383 166.943 473.308C165.058 472.222 163.207 471.759 161.391 471.92C159.565 472.099 157.877 472.764 156.328 473.915C154.75 475.074 153.428 476.578 152.363 478.426L139.331 501.054L132.565 497.157L145.597 474.529C146.949 472.182 148.586 470.195 150.507 468.569C152.418 466.961 154.505 465.775 156.767 465.01C159.029 464.245 161.363 463.976 163.767 464.204C166.153 464.421 168.511 465.2 170.84 466.542Z" fill="#414141"/>
<path d="M140.144 446.789L109.164 479.15L96.7509 467.267C94.9942 465.585 93.8274 463.627 93.2505 461.391C92.6737 459.156 92.6773 456.9 93.2614 454.624C93.8307 452.363 94.971 450.339 96.6823 448.551C98.0838 447.087 99.6444 445.997 101.364 445.281C103.053 444.565 104.804 444.217 106.615 444.238C108.41 444.244 110.146 444.606 111.821 445.324L116.89 424.527L123.386 430.746L118.549 450.791L122.178 454.265L134.504 441.39L140.144 446.789ZM116.779 459.905L110.653 454.041C109.852 453.274 108.928 452.773 107.882 452.54C106.836 452.306 105.788 452.336 104.738 452.631C103.688 452.925 102.765 453.489 101.968 454.321C101.157 455.168 100.627 456.123 100.379 457.184C100.13 458.246 100.146 459.294 100.425 460.329C100.704 461.364 101.244 462.266 102.045 463.033L108.171 468.897L116.779 459.905Z" fill="#414141"/>
<path d="M114.747 421.739L79.2034 449.01L62.101 426.719L68.2958 421.966L80.6454 438.062L87.8557 432.53L78.0578 419.76L84.2526 415.007L94.0505 427.777L103.8 420.297L91.4501 404.201L97.6448 399.448L114.747 421.739Z" fill="#414141"/>
<path d="M87.5343 379.806C89.2072 382.976 89.9024 386.167 89.6199 389.379C89.3274 392.573 88.2279 395.517 86.3213 398.212C84.3958 400.917 81.8388 403.111 78.6503 404.793L55.5572 416.981L51.9128 410.076L75.0059 397.888C76.8926 396.892 78.4441 395.627 79.6605 394.093C80.8481 392.549 81.565 390.868 81.8114 389.05C82.0289 387.222 81.6348 385.356 80.629 383.45C79.6134 381.526 78.2948 380.147 76.6733 379.315C75.0329 378.492 73.2505 378.154 71.3261 378.301C69.3729 378.44 67.4529 379.007 65.5662 380.002L42.4731 392.19L38.8287 385.285L61.9218 373.097C64.3179 371.832 66.7622 371.025 69.2547 370.674C71.7284 370.334 74.126 370.443 76.4477 371.003C78.7694 371.563 80.8864 372.58 82.7988 374.055C84.7012 375.512 86.2797 377.429 87.5343 379.806Z" fill="#414141"/>
<path d="M72.1332 347.025L28.6781 357.92L24.4991 341.252C23.9077 338.893 23.9631 336.614 24.6653 334.415C25.3675 332.215 26.5718 330.308 28.2781 328.692C29.9638 327.082 32.0068 325.976 34.4072 325.374C36.373 324.881 38.2744 324.789 40.1114 325.099C41.9226 325.392 43.5891 326.03 45.1109 327.012C46.6276 327.974 47.9038 329.204 48.9396 330.704L64.3044 315.8L66.4912 324.522L51.7236 338.913L52.9454 343.786L70.2343 339.452L72.1332 347.025ZM45.3718 345.685L43.3096 337.46C43.0398 336.384 42.5244 335.468 41.7633 334.713C41.0022 333.959 40.0989 333.426 39.0536 333.116C38.0082 332.807 36.9268 332.792 35.8094 333.072C34.6713 333.357 33.7144 333.883 32.9388 334.65C32.1632 335.416 31.618 336.311 31.303 337.336C30.9881 338.361 30.9655 339.411 31.2353 340.487L33.2975 348.712L45.3718 345.685Z" fill="#414141"/>
<path d="M63.9359 312.137L19.3121 316.106L16.8232 288.12L24.6005 287.429L26.3977 307.637L35.45 306.832L34.0241 290.799L41.8014 290.107L43.2273 306.14L55.467 305.052L53.6698 284.843L61.4471 284.152L63.9359 312.137Z" fill="#414141"/>
<path d="M63.4127 261.133C63.1227 264.705 61.9963 267.771 60.0335 270.33C58.0724 272.867 55.5643 274.761 52.5091 276.012C49.4327 277.26 46.0977 277.738 42.5042 277.447L16.4778 275.334L17.1095 267.552L43.1359 269.664C45.2623 269.837 47.2504 269.602 49.1004 268.961C50.9309 268.296 52.4381 267.262 53.6221 265.86C54.7866 264.435 55.456 262.649 55.6303 260.501C55.8063 258.332 55.4338 256.461 54.5128 254.888C53.5704 253.314 52.2479 252.072 50.5452 251.163C48.8229 250.231 46.8986 249.679 44.7723 249.507L18.7459 247.394L19.3776 239.612L45.404 241.724C48.1044 241.943 50.6003 242.574 52.8915 243.616C55.1614 244.657 57.1256 246.036 58.784 247.755C60.4424 249.473 61.6823 251.468 62.5039 253.739C63.3273 255.989 63.6302 258.454 63.4127 261.133Z" fill="#414141"/>
<path d="M68.0123 225.02L25.5057 210.87L30.9334 194.566C31.7015 192.258 32.9724 190.365 34.7461 188.887C36.5198 187.409 38.5601 186.447 40.8672 186.001C43.1539 185.548 45.4713 185.712 47.8193 186.494C49.7422 187.134 51.3954 188.078 52.7789 189.325C54.1488 190.546 55.2119 191.979 55.9681 193.625C56.7311 195.25 57.1467 196.974 57.2148 198.795L78.1803 194.476L75.3401 203.008L55.1538 207.215L53.5669 211.982L70.4785 217.612L68.0123 225.02ZM46.1587 209.516L48.8371 201.47C49.1875 200.418 49.2444 199.369 49.0079 198.323C48.7714 197.277 48.2954 196.343 47.58 195.521C46.8646 194.698 45.9603 194.104 44.8673 193.741C43.754 193.37 42.6645 193.3 41.5987 193.529C40.5329 193.759 39.592 194.222 38.776 194.917C37.9599 195.612 37.3767 196.486 37.0264 197.538L34.3479 205.584L46.1587 209.516Z" fill="#414141"/>
<path d="M79.7631 191.293L39.989 170.676L52.9187 145.732L59.8508 149.325L50.5143 167.337L58.5827 171.519L65.9901 157.229L72.9222 160.822L65.5148 175.112L76.4243 180.767L85.7608 162.755L92.6929 166.349L79.7631 191.293Z" fill="#414141"/>
<path d="M105.737 149.32C103.587 152.187 100.999 154.18 97.9742 155.298C94.9619 156.399 91.8302 156.663 88.579 156.092C85.3107 155.507 82.2345 154.133 79.3502 151.97L58.4605 136.303L63.1452 130.057L84.0349 145.724C85.7416 147.004 87.5486 147.865 89.4558 148.309C91.3587 148.723 93.1848 148.653 94.9342 148.098C96.6792 147.513 98.1981 146.359 99.4909 144.636C100.797 142.895 101.479 141.113 101.539 139.291C101.582 137.457 101.125 135.701 100.169 134.024C99.2093 132.318 97.8759 130.824 96.1692 129.544L75.2796 113.877L79.9643 107.631L100.854 123.298C103.021 124.923 104.796 126.788 106.179 128.891C107.544 130.982 108.47 133.197 108.956 135.535C109.443 137.873 109.428 140.222 108.912 142.581C108.408 144.923 107.35 147.17 105.737 149.32Z" fill="#414141"/>
<path d="M129.395 120.658L100.974 86.0273L114.258 75.1258C116.138 73.583 118.222 72.659 120.51 72.3538C122.799 72.0487 125.038 72.3222 127.228 73.1745C129.404 74.0103 131.277 75.3847 132.847 77.2976C134.133 78.8642 135.029 80.544 135.534 82.337C136.043 84.0999 136.178 85.8791 135.941 87.6747C135.72 89.4567 135.153 91.1365 134.239 92.7139L154.28 100.235L147.329 105.94L128.007 98.7393L124.124 101.927L135.431 115.705L129.395 120.658ZM119.17 95.8909L125.725 90.5112C126.583 89.8074 127.19 88.9502 127.547 87.9395C127.905 86.9288 128 85.8847 127.833 84.8072C127.666 83.7297 127.218 82.7457 126.487 81.8552C125.742 80.9482 124.858 80.3079 123.834 79.9342C122.81 79.5605 121.767 79.4502 120.706 79.6034C119.645 79.7566 118.686 80.1851 117.828 80.8888L111.273 86.2685L119.17 95.8909Z" fill="#414141"/>
<path d="M156.636 98.799L133.85 60.2267L158.04 45.9364L162.011 52.659L144.543 62.978L149.166 70.8026L163.024 62.6158L166.996 69.3385L153.137 77.5252L159.387 88.1051L176.855 77.7861L180.826 84.5088L156.636 98.799Z" fill="#414141"/>
<path d="M201.194 76.8139C197.848 78.0981 194.597 78.4091 191.441 77.7467C188.304 77.0767 185.512 75.635 183.063 73.4216C180.606 71.1882 178.732 68.3886 177.44 65.0226L168.083 40.6445L175.373 37.8467L184.729 62.2249C185.494 64.2166 186.565 65.9075 187.945 67.2977C189.336 68.6603 190.92 69.5719 192.696 70.0327C194.485 70.4659 196.385 70.2964 198.396 69.5244C200.428 68.7447 201.953 67.5993 202.973 66.0883C203.985 64.5574 204.532 62.8278 204.615 60.8995C204.71 58.9436 204.375 56.9699 203.61 54.9782L194.254 30.6001L201.543 27.8023L210.9 52.1804C211.871 54.7099 212.382 57.2328 212.434 59.7494C212.478 62.246 212.084 64.6136 211.253 66.8523C210.421 69.091 209.159 71.072 207.467 72.7955C205.795 74.5113 203.704 75.8508 201.194 76.8139Z" fill="#414141"/>
<path d="M236.698 65.0607L231.187 20.6009L248.241 18.4872C250.654 18.188 252.909 18.5211 255.007 19.4865C257.104 20.4518 258.85 21.8799 260.246 23.7706C261.638 25.6402 262.487 27.8029 262.791 30.2588C263.04 32.2701 262.899 34.1685 262.368 35.954C261.856 37.7158 261.019 39.292 259.859 40.6826C258.72 42.0706 257.343 43.1871 255.728 44.0322L268.645 61.1009L259.721 62.207L247.24 45.7936L242.254 46.4116L244.446 64.1002L236.698 65.0607ZM241.293 38.6629L249.709 37.6198C250.81 37.4834 251.782 37.0835 252.624 36.4202C253.466 35.7569 254.104 34.9254 254.539 33.9256C254.974 32.9258 255.121 31.8543 254.979 30.7111C254.835 29.5467 254.43 28.5328 253.764 27.6695C253.098 26.8062 252.276 26.1557 251.297 25.7181C250.319 25.2805 249.279 25.1299 248.178 25.2663L239.762 26.3094L241.293 38.6629Z" fill="#414141"/>
<path d="M273.129 61.1118L274.685 16.3388L302.764 17.3145L302.492 25.1178L282.217 24.4132L281.901 33.4957L297.987 34.0547L297.716 41.858L281.63 41.299L281.203 53.5796L301.479 54.2842L301.208 62.0875L273.129 61.1118Z" fill="#414141"/>
<path d="M322.239 66.5315C318.727 65.8197 315.817 64.3375 313.509 62.085C311.222 59.8366 309.639 57.1215 308.76 53.9396C307.885 50.7367 307.806 47.3685 308.522 43.835L313.708 18.2432L321.36 19.7939L316.174 45.3857C315.751 47.4766 315.748 49.4785 316.165 51.3916C316.608 53.288 317.455 54.9072 318.707 56.2492C319.984 57.5745 321.678 58.4511 323.79 58.8791C325.923 59.3112 327.825 59.1633 329.496 58.4354C331.171 57.6866 332.561 56.5207 333.666 54.9379C334.795 53.3383 335.572 51.4931 335.995 49.4023L341.181 23.8105L348.834 25.3612L343.648 50.953C343.11 53.6084 342.187 56.0117 340.881 58.1631C339.578 60.2935 337.976 62.0801 336.073 63.5229C334.169 64.9657 332.042 65.9602 329.689 66.5065C327.357 67.057 324.874 67.0654 322.239 66.5315Z" fill="#414141"/>
<path d="M357.631 75.3308L376.758 34.8195L392.297 42.1563C394.497 43.1947 396.224 44.6827 397.48 46.6202C398.735 48.5578 399.447 50.6985 399.614 53.0423C399.79 55.3668 399.35 57.6479 398.294 59.8857C397.428 61.7184 396.294 63.2469 394.89 64.4714C393.515 65.6857 391.965 66.57 390.24 67.1241C388.535 67.6874 386.774 67.8941 384.958 67.7441L386.741 89.0755L378.61 85.2363L376.844 64.6918L372.301 62.5468L364.691 78.6645L357.631 75.3308ZM375.635 55.4862L383.303 59.1068C384.306 59.5805 385.341 59.7623 386.407 59.6524C387.474 59.5425 388.458 59.1816 389.361 58.5696C390.263 57.9576 390.96 57.1308 391.452 56.089C391.953 55.028 392.153 53.9547 392.052 52.8691C391.951 51.7834 391.605 50.794 391.012 49.9008C390.419 49.0075 389.621 48.3241 388.618 47.8505L380.95 44.2299L375.635 55.4862Z" fill="#414141"/>
<path d="M389.332 90.7133L414.479 53.637L437.731 69.4079L433.349 75.8698L416.558 64.4817L411.457 72.0029L424.778 81.0379L420.395 87.4998L407.074 78.4647L400.177 88.6343L416.967 100.022L412.584 106.484L389.332 90.7133Z" fill="#414141"/>
<path d="M428.962 122.233C426.374 119.754 424.705 116.946 423.958 113.809C423.226 110.687 423.339 107.546 424.296 104.387C425.268 101.212 427 98.3225 429.493 95.7181L447.55 76.8561L453.191 82.2555L435.134 101.118C433.658 102.659 432.586 104.349 431.917 106.19C431.278 108.029 431.129 109.851 431.47 111.654C431.842 113.456 432.805 115.103 434.362 116.593C435.934 118.097 437.62 118.989 439.422 119.266C441.238 119.528 443.036 119.285 444.815 118.537C446.625 117.789 448.267 116.644 449.742 115.103L467.799 96.2409L473.44 101.64L455.382 120.502C453.509 122.459 451.445 123.998 449.191 125.119C446.952 126.224 444.643 126.878 442.263 127.08C439.884 127.283 437.553 126.987 435.273 126.192C433.008 125.411 430.904 124.092 428.962 122.233Z" fill="#414141"/>
<path d="M453.932 148.222L491.641 124.034L500.919 138.498C502.232 140.545 502.906 142.723 502.942 145.031C502.979 147.34 502.446 149.532 501.344 151.607C500.26 153.671 498.676 155.371 496.593 156.707C494.888 157.801 493.115 158.495 491.275 158.788C489.465 159.087 487.682 159.014 485.926 158.569C484.182 158.142 482.58 157.383 481.12 156.292L471.312 175.318L466.458 167.75L475.863 149.399L473.15 145.17L458.147 154.794L453.932 148.222ZM479.722 140.955L484.301 148.093C484.9 149.026 485.68 149.73 486.642 150.202C487.604 150.675 488.63 150.891 489.72 150.851C490.809 150.811 491.839 150.481 492.809 149.859C493.796 149.225 494.536 148.421 495.026 147.448C495.517 146.474 495.748 145.452 495.719 144.38C495.691 143.308 495.377 142.306 494.778 141.372L490.2 134.234L479.722 140.955Z" fill="#414141"/>
<path d="M473.29 179.406L514.353 161.493L525.587 187.245L518.43 190.367L510.318 171.772L501.988 175.405L508.424 190.159L501.267 193.281L494.831 178.527L483.568 183.441L491.68 202.036L484.524 205.158L473.29 179.406Z" fill="#414141"/>
<path d="M489.497 225.933C488.625 222.457 488.708 219.192 489.746 216.139C490.789 213.106 492.557 210.507 495.049 208.343C497.563 206.173 500.568 204.65 504.065 203.773L529.393 197.423L531.292 204.997L505.964 211.347C503.894 211.866 502.087 212.726 500.54 213.927C499.02 215.144 497.924 216.606 497.253 218.314C496.607 220.038 496.546 221.944 497.07 224.034C497.599 226.145 498.552 227.798 499.93 228.992C501.327 230.181 502.978 230.933 504.883 231.247C506.813 231.577 508.813 231.482 510.882 230.964L536.21 224.613L538.109 232.187L512.781 238.537C510.153 239.196 507.586 239.4 505.082 239.148C502.598 238.891 500.295 238.214 498.173 237.119C496.051 236.024 494.237 234.532 492.73 232.644C491.228 230.778 490.15 228.541 489.497 225.933Z" fill="#414141"/>
<path d="M477.743 355.526C478.965 352.157 480.859 349.497 483.427 347.546C485.988 345.615 488.907 344.449 492.183 344.048C495.48 343.655 498.823 344.073 502.213 345.301L526.761 354.2L524.101 361.541L499.552 352.642C497.546 351.915 495.566 351.617 493.613 351.749C491.672 351.907 489.945 352.507 488.434 353.547C486.935 354.615 485.818 356.162 485.084 358.187C484.342 360.233 484.208 362.136 484.682 363.896C485.176 365.664 486.124 367.21 487.527 368.536C488.943 369.888 490.654 370.928 492.659 371.655L517.208 380.554L514.547 387.895L489.999 378.996C487.451 378.073 485.21 376.806 483.275 375.197C481.359 373.595 479.828 371.747 478.682 369.652C477.535 367.557 476.865 365.306 476.671 362.898C476.47 360.511 476.827 358.054 477.743 355.526Z" fill="#414141"/>
</svg>
